# xmcd
#
# Track frame offsets:
#	150
#	16813
#	37133
#	56188
#	69806
#	82725
#	104645
#	117728
#	130710
#	151672
#	166737
#	189398
#	206455
#	223282
#	247837
#	264730
#	276440
#	287107
#	301643
#
# Disc length: 4226 seconds
#
# Revision: 0
# Processed by: cddbd v1.5.2PL0 Copyright (c) Steve Scherf et al.
# Submitted via: EasyCDDAExtractor 2010.6.0.0
#
DISCID=0c108013
DTITLE=Various Artist - More Christmas - CD 02
DYEAR=2010
DGENRE=
TTITLE0=Band Aid - Do They Know Its Christmas
TTITLE1=Boney M - Mary's Boy Child
TTITLE2=Britney Spears - My Only Wish (This Year)
TTITLE3=José Feliciano - Feliz Navidad
TTITLE4=Otto Brandenburg - Søren Banjomus
TTITLE5=Juice S.O.A.P. and Christina feat. Remee - Let Love Be Love
TTITLE6=Martin Brygman and Bent Fabricius-Bjerre - When You Wish Upon A Star
TTITLE7=Macy Grey - Winter Wonderland
TTITLE8=Sanne Salomonsen and Nicolaj Steen - Vi Lover Hinanden
TTITLE9=Pernille Valentin - Santa Baby
TTITLE10=Anne Linnet - Lille Messisas
TTITLE11=Johnny Logan - Another Christmas Song
TTITLE12=Ida Corr - Merry Christmas To U All
TTITLE13=Vocaloca - The Christmas Song
TTITLE14=Bamse - Jul På Vimmersvej
TTITLE15=Kaya and Ole - Juletræet Med Sin Pynt
TTITLE16=John Mogensen - På Loftet Sidder Nissen
TTITLE17=Me and My - Too Much Christmas
TTITLE18=D-A-D - Sad Sad Xmas
EXTD=
EXTT0=
EXTT1=
EXTT2=
EXTT3=
EXTT4=
EXTT5=
EXTT6=
EXTT7=
EXTT8=
EXTT9=
EXTT10=
EXTT11=
EXTT12=
EXTT13=
EXTT14=
EXTT15=
EXTT16=
EXTT17=
EXTT18=
PLAYORDER=
